<?xml version="1.0" standalone="no"?>
<!DOCTYPE svg PUBLIC "-//W3C//DTD SVG 20010904//EN"
 "http://www.w3.org/TR/2001/REC-SVG-20010904/DTD/svg10.dtd">
<svg version="1.0" xmlns="http://www.w3.org/2000/svg"
 width="300.000000pt" height="168.000000pt" viewBox="0 0 300.000000 168.000000"
 preserveAspectRatio="xMidYMid meet">

<g transform="translate(0.000000,168.000000) scale(0.100000,-0.100000)"
fill="#000000" stroke="none">
<path d="M0 840 l0 -840 1500 0 1500 0 0 840 0 840 -1500 0 -1500 0 0 -840z
m899 737 c-16 -13 -128 -63 -123 -55 7 11 102 58 118 58 5 0 7 -2 5 -3z m-327
-159 c-26 -40 -61 -120 -77 -176 -4 -13 -9 -22 -11 -19 -2 2 6 35 18 73 12 38
21 73 19 78 -2 8 67 86 76 86 1 0 -10 -19 -25 -42z m985 20 c-3 -8 -6 -5 -6 6
-1 11 2 17 5 13 3 -3 4 -12 1 -19z m-788 -22 c10 -11 8 -16 -8 -21 -12 -3 -43
-24 -71 -46 -27 -22 -50 -36 -50 -31 0 17 86 99 99 94 8 -3 11 0 7 7 -10 16 9
14 23 -3z m41 10 c0 -11 -19 -15 -25 -6 -3 5 1 10 9 10 9 0 16 -2 16 -4z m920
-33 c0 -7 -39 17 -46 28 -3 6 5 3 20 -6 14 -10 26 -19 26 -22z m139 -7 c14
-14 23 -28 20 -30 -4 -5 -79 61 -79 69 0 10 35 -13 59 -39z m-322 12 c-3 -8
-6 -5 -6 6 -1 11 2 17 5 13 3 -3 4 -12 1 -19z m-1052 -74 c-14 -25 -28 -68
-31 -95 -6 -48 -24 -69 -24 -29 0 23 34 111 56 145 26 40 25 29 -1 -21z m1308
31 c-3 -9 -8 -14 -10 -11 -3 3 -2 9 2 15 9 16 15 13 8 -4z m-1297 -182 c-11
-11 -17 4 -9 23 7 18 8 18 11 1 2 -10 1 -21 -2 -24z m1411 6 c24 -12 51 -32
59 -45 17 -24 77 -50 94 -39 5 3 10 1 10 -5 0 -12 58 -36 75 -31 5 1 7 -1 3
-4 -4 -4 2 -25 12 -46 11 -21 20 -41 20 -44 0 -13 -38 32 -44 53 -4 12 -12 20
-17 17 -5 -4 -9 -2 -9 3 0 11 -80 48 -95 45 -6 -2 -29 15 -52 36 -22 22 -60
45 -83 52 -52 16 -61 7 -79 -76 -15 -67 -25 -68 -12 -2 12 68 -3 49 -25 -30
-18 -66 -19 -67 -24 -33 -3 20 -11 34 -18 33 -16 -4 -16 -2 14 51 48 87 92
103 171 65z m-780 -5 c-3 -3 -12 -4 -19 -1 -8 3 -5 6 6 6 11 1 17 -2 13 -5z
m-720 -61 c-3 -10 -5 -2 -5 17 0 19 2 27 5 18 2 -10 2 -26 0 -35z m587 2 c-4
-8 -17 -15 -30 -15 -13 0 -24 -5 -24 -12 0 -6 -3 -8 -7 -5 -3 4 2 16 12 27 22
24 57 28 49 5z m-20 -41 c3 -8 2 -12 -4 -9 -13 8 -52 -19 -42 -29 4 -4 -6 -2
-23 6 l-29 13 37 9 c20 5 37 13 37 18 0 14 18 9 24 -8z m-517 -81 c-2 -16 -4
-5 -4 22 0 28 2 40 4 28 2 -13 2 -35 0 -50z m-60 25 c-3 -8 -6 -5 -6 6 -1 11
2 17 5 13 3 -3 4 -12 1 -19z m934 5 c13 -16 12 -17 -3 -4 -17 13 -22 21 -14
21 2 0 10 -8 17 -17z m-431 -60 c0 -9 -5 -8 -18 5 -10 9 -14 19 -10 20 5 2 6
9 2 15 -3 7 2 3 10 -7 9 -11 16 -26 16 -33z m-503 -10 c-3 -10 -5 -2 -5 17 0
19 2 27 5 18 2 -10 2 -26 0 -35z m1548 -23 c-9 -28 -19 -50 -21 -48 -2 2 4 27
13 56 9 28 19 50 21 47 2 -2 -4 -27 -13 -55z m-1110 30 c-3 -5 2 -10 12 -10
11 0 14 -3 7 -8 -6 -4 -13 -15 -17 -24 -4 -13 5 -20 41 -32 75 -26 139 -75
200 -156 83 -107 85 -115 9 -34 -71 77 -158 131 -226 140 -54 8 -102 -22 -130
-80 -28 -56 -26 -75 8 -116 25 -30 31 -33 45 -21 19 16 22 1 4 -18 -11 -10
-10 -15 2 -24 8 -7 16 -17 17 -22 1 -6 4 -18 8 -27 4 -11 -1 -20 -15 -28 -19
-10 -29 -7 -76 24 -30 20 -54 39 -54 42 0 4 7 1 15 -6 14 -12 15 -6 9 51 -3
37 -2 81 5 105 11 42 74 124 95 124 7 0 21 9 31 20 17 18 16 19 -9 26 -32 8
-33 21 -4 57 21 26 35 37 23 17z m1352 -32 c-3 -8 -6 -5 -6 6 -1 11 2 17 5 13
3 -3 4 -12 1 -19z m-1720 6 c-3 -3 -12 -4 -19 -1 -8 3 -5 6 6 6 11 1 17 -2 13
-5z m421 -6 c-2 -6 -10 -14 -16 -16 -7 -2 -10 2 -6 12 7 18 28 22 22 4z m1207
-16 c-3 -3 -11 0 -18 7 -9 10 -8 11 6 5 10 -3 15 -9 12 -12z m-1452 -19 c-28
-46 -35 -53 -44 -47 -5 3 6 20 24 39 39 42 43 43 20 8z m-194 -5 c1 6 6 12 11
12 6 0 10 -17 10 -37 0 -54 70 -190 132 -259 29 -32 80 -75 112 -96 33 -21 53
-38 46 -38 -26 0 -112 64 -169 126 -62 68 -110 149 -141 240 -20 57 -26 97
-10 59 5 -11 9 -14 9 -7z m1707 -114 c-23 -110 -54 -205 -76 -234 -23 -30 -25
-19 -6 43 17 58 2 62 -20 7 -9 -23 -18 -39 -20 -37 -2 2 4 26 15 53 10 27 31
96 47 154 17 66 35 113 48 125 l21 20 3 -28 c2 -15 -4 -62 -12 -103z m31 104
c-3 -8 -6 -5 -6 6 -1 11 2 17 5 13 3 -3 4 -12 1 -19z m-771 -11 c7 -12 28 -51
47 -87 65 -118 89 -210 95 -351 5 -137 -1 -161 -53 -209 -27 -25 -27 -24 5 30
18 30 31 56 30 58 -1 1 0 21 4 43 5 29 1 52 -14 86 -11 25 -20 50 -20 55 0 6
-9 23 -21 39 -11 16 -17 29 -13 29 4 0 0 8 -9 18 -28 32 -88 243 -75 266 5 10
7 24 4 32 -9 23 8 16 20 -9z m495 -34 c-12 -20 -14 -14 -5 12 4 9 9 14 11 11
3 -2 0 -13 -6 -23z m-270 -27 c-14 -36 -22 -33 -9 5 6 16 12 28 14 26 3 -2 0
-16 -5 -31z m295 -109 c3 -21 -36 -61 -48 -49 -13 13 12 73 30 70 8 -2 16 -11
18 -21z m-1331 -57 c10 -11 16 -20 13 -20 -3 0 -13 9 -23 20 -10 11 -16 20
-13 20 3 0 13 -9 23 -20z m1372 -313 c-15 -24 -47 -66 -72 -93 l-46 -49 44 56
c24 31 55 75 67 98 13 22 26 39 28 36 2 -2 -7 -24 -21 -48z m-957 -165 c58
-33 61 -41 7 -18 -42 18 -157 103 -157 117 0 5 21 -7 48 -29 26 -21 72 -53
102 -70z m635 68 c3 -5 1 -10 -4 -10 -6 0 -11 5 -11 10 0 6 2 10 4 10 3 0 8
-4 11 -10z m-204 -48 c-6 -11 -29 -35 -52 -53 l-41 -33 33 46 c19 25 37 43 41
41 4 -2 10 7 14 19 4 13 9 18 11 11 2 -7 0 -21 -6 -31z m-328 1 c-7 -2 -19 -2
-25 0 -7 3 -2 5 12 5 14 0 19 -2 13 -5z"/>
</g>
</svg>
